{
    "asset" : {
        "generator" : "Khronos glTF Blender I/O v1.0.5",
        "version" : "2.0"
    },
    "scene" : 0,
    "scenes" : [
        {
            "name" : "Scene",
            "nodes" : [
                0,
                1
            ]
        }
    ],
    "nodes" : [
        {
            "mesh" : 0,
            "name" : "bb8-body",
            "scale" : [
                0.5970042943954468,
                0.5970042943954468,
                0.597004234790802
            ],
            "translation" : [
                -0.055691905319690704,
                0.62987220287323,
                0.29062822461128235
            ]
        },
        {
            "mesh" : 1,
            "name" : "bb8-head",
            "rotation" : [
                0.11554761230945587,
                -0.18914923071861267,
                -0.1488470733165741,
                0.9636990427970886
            ],
            "scale" : [
                0.5970042943954468,
                0.5970043540000916,
                0.597004234790802
            ],
            "translation" : [
                -0.04264478385448456,
                0.29526811838150024,
                0.20823746919631958
            ]
        }
    ],
    "animations" : [
        {
            "channels" : [
                {
                    "sampler" : 0,
                    "target" : {
                        "node" : 0,
                        "path" : "rotation"
                    }
                }
            ],
            "name" : "bb8-bodyAction.001",
            "samplers" : [
                {
                    "input" : 23,
                    "interpolation" : "LINEAR",
                    "output" : 24
                }
            ]
        }
    ],
    "materials" : [
        {
            "doubleSided" : true,
            "name" : "Material.023",
            "pbrMetallicRoughness" : {}
        },
        {
            "doubleSided" : true,
            "name" : "Material.024",
            "pbrMetallicRoughness" : {}
        },
        {
            "doubleSided" : true,
            "name" : "Material.019",
            "pbrMetallicRoughness" : {}
        },
        {
            "doubleSided" : true,
            "name" : "Material.020",
            "pbrMetallicRoughness" : {}
        },
        {
            "doubleSided" : true,
            "name" : "Material.022",
            "pbrMetallicRoughness" : {}
        }
    ],
    "meshes" : [
        {
            "name" : "Cube.001",
            "primitives" : [
                {
                    "attributes" : {
                        "POSITION" : 0,
                        "NORMAL" : 1
                    },
                    "indices" : 2,
                    "material" : 0
                },
                {
                    "attributes" : {
                        "POSITION" : 3,
                        "NORMAL" : 4
                    },
                    "indices" : 5,
                    "material" : 1
                },
                {
                    "attributes" : {
                        "POSITION" : 6,
                        "NORMAL" : 7
                    },
                    "indices" : 8,
                    "material" : 2
                }
            ]
        },
        {
            "name" : "Cube.002",
            "primitives" : [
                {
                    "attributes" : {
                        "POSITION" : 9,
                        "NORMAL" : 10
                    },
                    "indices" : 11,
                    "material" : 0
                },
                {
                    "attributes" : {
                        "POSITION" : 12,
                        "NORMAL" : 13
                    },
                    "indices" : 14,
                    "material" : 1
                },
                {
                    "attributes" : {
                        "POSITION" : 15,
                        "NORMAL" : 16
                    },
                    "indices" : 17,
                    "material" : 2
                },
                {
                    "attributes" : {
                        "POSITION" : 18,
                        "NORMAL" : 19
                    },
                    "indices" : 20,
                    "material" : 3
                },
                {
                    "attributes" : {
                        "POSITION" : 21,
                        "NORMAL" : 22
                    },
                    "indices" : 20,
                    "material" : 4
                }
            ]
        }
    ],
    "accessors" : [
        {
            "bufferView" : 0,
            "componentType" : 5126,
            "count" : 341,
            "max" : [
                0.9887425899505615,
                0.9855431318283081,
                0.9583839178085327
            ],
            "min" : [
                -0.9870907664299011,
                -0.9801304340362549,
                -0.9575003385543823
            ],
            "type" : "VEC3"
        },
        {
            "bufferView" : 1,
            "componentType" : 5126,
            "count" : 341,
            "type" : "VEC3"
        },
        {
            "bufferView" : 2,
            "componentType" : 5123,
            "count" : 441,
            "type" : "SCALAR"
        },
        {
            "bufferView" : 3,
            "componentType" : 5126,
            "count" : 192,
            "max" : [
                0.9674975872039795,
                0.9855431318283081,
                0.944602370262146
            ],
            "min" : [
                -0.9749906063079834,
                -0.9801304340362549,
                -0.9395409822463989
            ],
            "type" : "VEC3"
        },
        {
            "bufferView" : 4,
            "componentType" : 5126,
            "count" : 192,
            "type" : "VEC3"
        },
        {
            "bufferView" : 5,
            "componentType" : 5123,
            "count" : 288,
            "type" : "SCALAR"
        },
        {
            "bufferView" : 6,
            "componentType" : 5126,
            "count" : 33,
            "max" : [
                0.8918555974960327,
                0.49054789543151855,
                0.8777033090591431
            ],
            "min" : [
                -0.9122111797332764,
                -0.16201485693454742,
                0.3648284077644348
            ],
            "type" : "VEC3"
        },
        {
            "bufferView" : 7,
            "componentType" : 5126,
            "count" : 33,
            "type" : "VEC3"
        },
        {
            "bufferView" : 8,
            "componentType" : 5123,
            "count" : 51,
            "type" : "SCALAR"
        },
        {
            "bufferView" : 9,
            "componentType" : 5126,
            "count" : 172,
            "max" : [
                0.29027920961380005,
                2.2217960357666016,
                0.8127074241638184
            ],
            "min" : [
                -1.0373133420944214,
                1.3290070295333862,
                -0.5205923318862915
            ],
            "type" : "VEC3"
        },
        {
            "bufferView" : 10,
            "componentType" : 5126,
            "count" : 172,
            "type" : "VEC3"
        },
        {
            "bufferView" : 11,
            "componentType" : 5123,
            "count" : 252,
            "type" : "SCALAR"
        },
        {
            "bufferView" : 12,
            "componentType" : 5126,
            "count" : 64,
            "max" : [
                0.27065062522888184,
                2.152073621749878,
                0.6493881940841675
            ],
            "min" : [
                -1.0373133420944214,
                1.3290070295333862,
                -0.5134100317955017
            ],
            "type" : "VEC3"
        },
        {
            "bufferView" : 13,
            "componentType" : 5126,
            "count" : 64,
            "type" : "VEC3"
        },
        {
            "bufferView" : 14,
            "componentType" : 5123,
            "count" : 102,
            "type" : "SCALAR"
        },
        {
            "bufferView" : 15,
            "componentType" : 5126,
            "count" : 64,
            "max" : [
                0.29027920961380005,
                2.2217960357666016,
                0.8029277920722961
            ],
            "min" : [
                -1.0151478052139282,
                1.356520414352417,
                -0.5205923318862915
            ],
            "type" : "VEC3"
        },
        {
            "bufferView" : 16,
            "componentType" : 5126,
            "count" : 64,
            "type" : "VEC3"
        },
        {
            "bufferView" : 17,
            "componentType" : 5123,
            "count" : 96,
            "type" : "SCALAR"
        },
        {
            "bufferView" : 18,
            "componentType" : 5126,
            "count" : 368,
            "max" : [
                -0.2258051037788391,
                2.019084930419922,
                0.8158641457557678
            ],
            "min" : [
                -0.5705921053886414,
                1.684295654296875,
                0.518740177154541
            ],
            "type" : "VEC3"
        },
        {
            "bufferView" : 19,
            "componentType" : 5126,
            "count" : 368,
            "type" : "VEC3"
        },
        {
            "bufferView" : 20,
            "componentType" : 5123,
            "count" : 528,
            "type" : "SCALAR"
        },
        {
            "bufferView" : 21,
            "componentType" : 5126,
            "count" : 368,
            "max" : [
                0.0401163250207901,
                1.8974419832229614,
                0.6851983070373535
            ],
            "min" : [
                -0.13389785587787628,
                1.7166765928268433,
                0.501979649066925
            ],
            "type" : "VEC3"
        },
        {
            "bufferView" : 22,
            "componentType" : 5126,
            "count" : 368,
            "type" : "VEC3"
        },
        {
            "bufferView" : 23,
            "componentType" : 5126,
            "count" : 61,
            "max" : [
                1
            ],
            "min" : [
                0
            ],
            "type" : "SCALAR"
        },
        {
            "bufferView" : 24,
            "componentType" : 5126,
            "count" : 61,
            "type" : "VEC4"
        }
    ],
    "bufferViews" : [
        {
            "buffer" : 0,
            "byteLength" : 4092,
            "byteOffset" : 0
        },
        {
            "buffer" : 0,
            "byteLength" : 4092,
            "byteOffset" : 4092
        },
        {
            "buffer" : 0,
            "byteLength" : 882,
            "byteOffset" : 8184
        },
        {
            "buffer" : 0,
            "byteLength" : 2304,
            "byteOffset" : 9068
        },
        {
            "buffer" : 0,
            "byteLength" : 2304,
            "byteOffset" : 11372
        },
        {
            "buffer" : 0,
            "byteLength" : 576,
            "byteOffset" : 13676
        },
        {
            "buffer" : 0,
            "byteLength" : 396,
            "byteOffset" : 14252
        },
        {
            "buffer" : 0,
            "byteLength" : 396,
            "byteOffset" : 14648
        },
        {
            "buffer" : 0,
            "byteLength" : 102,
            "byteOffset" : 15044
        },
        {
            "buffer" : 0,
            "byteLength" : 2064,
            "byteOffset" : 15148
        },
        {
            "buffer" : 0,
            "byteLength" : 2064,
            "byteOffset" : 17212
        },
        {
            "buffer" : 0,
            "byteLength" : 504,
            "byteOffset" : 19276
        },
        {
            "buffer" : 0,
            "byteLength" : 768,
            "byteOffset" : 19780
        },
        {
            "buffer" : 0,
            "byteLength" : 768,
            "byteOffset" : 20548
        },
        {
            "buffer" : 0,
            "byteLength" : 204,
            "byteOffset" : 21316
        },
        {
            "buffer" : 0,
            "byteLength" : 768,
            "byteOffset" : 21520
        },
        {
            "buffer" : 0,
            "byteLength" : 768,
            "byteOffset" : 22288
        },
        {
            "buffer" : 0,
            "byteLength" : 192,
            "byteOffset" : 23056
        },
        {
            "buffer" : 0,
            "byteLength" : 4416,
            "byteOffset" : 23248
        },
        {
            "buffer" : 0,
            "byteLength" : 4416,
            "byteOffset" : 27664
        },
        {
            "buffer" : 0,
            "byteLength" : 1056,
            "byteOffset" : 32080
        },
        {
            "buffer" : 0,
            "byteLength" : 4416,
            "byteOffset" : 33136
        },
        {
            "buffer" : 0,
            "byteLength" : 4416,
            "byteOffset" : 37552
        },
        {
            "buffer" : 0,
            "byteLength" : 244,
            "byteOffset" : 41968
        },
        {
            "buffer" : 0,
            "byteLength" : 976,
            "byteOffset" : 42212
        }
    ],
    "buffers" : [
        {
            "byteLength" : 43188,
            "uri" : "bb8-running.bin"
        }
    ]
}
